<svg width="327" height="138" viewBox="0 0 327 138" fill="none" xmlns="http://www.w3.org/2000/svg">
<g clip-path="url(#clip0_63_98)">
<path d="M44.0497 63.2727H49.2173V80.5142C49.2173 82.108 48.8591 83.4924 48.1428 84.6676C47.4344 85.8428 46.4484 86.7483 45.1847 87.3842C43.9209 88.0201 42.4519 88.3381 40.7777 88.3381C39.2886 88.3381 37.9363 88.0765 36.7209 87.5533C35.5135 87.022 34.5556 86.2171 33.8473 85.1385C33.139 84.0518 32.7888 82.6875 32.7969 81.0455H38.0007C38.0168 81.6974 38.1496 82.2569 38.3991 82.7237C38.6567 83.1825 39.0069 83.5367 39.4496 83.7862C39.9003 84.0277 40.4316 84.1484 41.0433 84.1484C41.6873 84.1484 42.2306 84.0116 42.6733 83.7379C43.1241 83.4562 43.4661 83.0457 43.6996 82.5064C43.933 81.9671 44.0497 81.303 44.0497 80.5142V63.2727ZM61.8224 88.3622C59.947 88.3622 58.325 87.9638 56.9567 87.1669C55.5964 86.362 54.5459 85.2431 53.8054 83.8104C53.0649 82.3696 52.6946 80.6993 52.6946 78.7997C52.6946 76.884 53.0649 75.2098 53.8054 73.777C54.5459 72.3362 55.5964 71.2173 56.9567 70.4205C58.325 69.6155 59.947 69.2131 61.8224 69.2131C63.6979 69.2131 65.3158 69.6155 66.6761 70.4205C68.0445 71.2173 69.099 72.3362 69.8395 73.777C70.58 75.2098 70.9503 76.884 70.9503 78.7997C70.9503 80.6993 70.58 82.3696 69.8395 83.8104C69.099 85.2431 68.0445 86.362 66.6761 87.1669C65.3158 87.9638 63.6979 88.3622 61.8224 88.3622ZM61.8466 84.3778C62.6998 84.3778 63.4122 84.1364 63.9837 83.6534C64.5552 83.1624 64.9858 82.4943 65.2756 81.6491C65.5734 80.804 65.7223 79.8421 65.7223 78.7635C65.7223 77.6849 65.5734 76.723 65.2756 75.8778C64.9858 75.0327 64.5552 74.3646 63.9837 73.8736C63.4122 73.3826 62.6998 73.1371 61.8466 73.1371C60.9853 73.1371 60.2609 73.3826 59.6733 73.8736C59.0938 74.3646 58.6551 75.0327 58.3572 75.8778C58.0675 76.723 57.9226 77.6849 57.9226 78.7635C57.9226 79.8421 58.0675 80.804 58.3572 81.6491C58.6551 82.4943 59.0938 83.1624 59.6733 83.6534C60.2609 84.1364 60.9853 84.3778 61.8466 84.3778ZM74.2947 88V69.4545H79.4382V88H74.2947ZM76.8786 67.0639C76.1139 67.0639 75.4579 66.8104 74.9105 66.3033C74.3712 65.7881 74.1016 65.1723 74.1016 64.456C74.1016 63.7476 74.3712 63.1399 74.9105 62.6328C75.4579 62.1177 76.1139 61.8601 76.8786 61.8601C77.6432 61.8601 78.2952 62.1177 78.8345 62.6328C79.3819 63.1399 79.6555 63.7476 79.6555 64.456C79.6555 65.1723 79.3819 65.7881 78.8345 66.3033C78.2952 66.8104 77.6432 67.0639 76.8786 67.0639ZM88.7019 77.2784V88H83.5584V69.4545H88.4604V72.7266H88.6777C89.0882 71.648 89.7765 70.7947 90.7424 70.1669C91.7083 69.531 92.8794 69.2131 94.2559 69.2131C95.5437 69.2131 96.6666 69.4948 97.6245 70.0582C98.5823 70.6217 99.3269 71.4266 99.8581 72.473C100.389 73.5114 100.655 74.7509 100.655 76.1918V88H95.5115V77.1094C95.5196 75.9744 95.2298 75.089 94.6422 74.4531C94.0546 73.8092 93.2457 73.4872 92.2154 73.4872C91.5231 73.4872 90.9114 73.6361 90.3801 73.9339C89.8569 74.2318 89.4464 74.6664 89.1486 75.2379C88.8588 75.8014 88.7099 76.4815 88.7019 77.2784ZM104.805 88V63.2727H110.033V83.6896H120.634V88H104.805ZM124 88V69.4545H129.143V88H124ZM126.584 67.0639C125.819 67.0639 125.163 66.8104 124.616 66.3033C124.076 65.7881 123.807 65.1723 123.807 64.456C123.807 63.7476 124.076 63.1399 124.616 62.6328C125.163 62.1177 125.819 61.8601 126.584 61.8601C127.348 61.8601 128 62.1177 128.54 62.6328C129.087 63.1399 129.361 63.7476 129.361 64.456C129.361 65.1723 129.087 65.7881 128.54 66.3033C128 66.8104 127.348 67.0639 126.584 67.0639ZM138.407 77.2784V88H133.263V69.4545H138.165V72.7266H138.383C138.793 71.648 139.482 70.7947 140.447 70.1669C141.413 69.531 142.585 69.2131 143.961 69.2131C145.249 69.2131 146.372 69.4948 147.33 70.0582C148.287 70.6217 149.032 71.4266 149.563 72.473C150.094 73.5114 150.36 74.7509 150.36 76.1918V88H145.217V77.1094C145.225 75.9744 144.935 75.089 144.347 74.4531C143.76 73.8092 142.951 73.4872 141.92 73.4872C141.228 73.4872 140.616 73.6361 140.085 73.9339C139.562 74.2318 139.152 74.6664 138.854 75.2379C138.564 75.8014 138.415 76.4815 138.407 77.2784ZM159.074 82.6634L159.086 76.4936H159.835L165.775 69.4545H171.68L163.699 78.7756H162.479L159.074 82.6634ZM154.414 88V63.2727H159.557V88H154.414ZM166.005 88L160.547 79.9226L163.976 76.2884L172.03 88H166.005ZM189.573 63.2727H194.801V79.331C194.801 81.134 194.37 82.7116 193.509 84.0639C192.656 85.4162 191.461 86.4706 189.923 87.2273C188.386 87.9759 186.595 88.3501 184.55 88.3501C182.498 88.3501 180.703 87.9759 179.165 87.2273C177.628 86.4706 176.433 85.4162 175.579 84.0639C174.726 82.7116 174.3 81.134 174.3 79.331V63.2727H179.528V78.8842C179.528 79.826 179.733 80.6631 180.143 81.3956C180.562 82.1281 181.149 82.7036 181.906 83.1222C182.663 83.5407 183.544 83.75 184.55 83.75C185.564 83.75 186.446 83.5407 187.194 83.1222C187.951 82.7036 188.535 82.1281 188.945 81.3956C189.364 80.6631 189.573 79.826 189.573 78.8842V63.2727ZM199.006 94.9545V69.4545H204.077V72.5696H204.306C204.531 72.0705 204.857 71.5634 205.284 71.0483C205.719 70.5251 206.282 70.0904 206.974 69.7443C207.675 69.3902 208.544 69.2131 209.582 69.2131C210.935 69.2131 212.182 69.5672 213.325 70.2756C214.468 70.9759 215.382 72.0343 216.066 73.451C216.75 74.8596 217.092 76.6264 217.092 78.7514C217.092 80.8201 216.758 82.5668 216.09 83.9915C215.43 85.4081 214.529 86.4827 213.386 87.2152C212.251 87.9396 210.979 88.3018 209.57 88.3018C208.572 88.3018 207.723 88.1368 207.023 87.8068C206.33 87.4768 205.763 87.0623 205.32 86.5632C204.878 86.0561 204.54 85.545 204.306 85.0298H204.149V94.9545H199.006ZM204.04 78.7273C204.04 79.83 204.193 80.7919 204.499 81.6129C204.805 82.4339 205.248 83.0739 205.827 83.5327C206.407 83.9834 207.111 84.2088 207.94 84.2088C208.777 84.2088 209.486 83.9794 210.065 83.5206C210.645 83.0537 211.084 82.4098 211.381 81.5888C211.687 80.7597 211.84 79.8059 211.84 78.7273C211.84 77.6567 211.691 76.715 211.393 75.902C211.096 75.089 210.657 74.4531 210.077 73.9943C209.498 73.5355 208.786 73.3061 207.94 73.3061C207.103 73.3061 206.395 73.5275 205.815 73.9702C205.244 74.4129 204.805 75.0407 204.499 75.8537C204.193 76.6667 204.04 77.6245 204.04 78.7273Z" fill="#18FF7B"/>
<mask id="mask0_63_98" style="mask-type:luminance" maskUnits="userSpaceOnUse" x="199" y="32" width="80" height="80">
<path d="M199 32H279V112H199V32Z" fill="white"/>
</mask>
<g mask="url(#mask0_63_98)">
<path d="M225.803 97.3035C227.867 98.7981 229.7 100.492 231.602 102.127C233.663 103.898 235.523 105.83 237.747 107.459C242.537 110.977 247.833 110.845 252.575 107.272C254.642 105.715 256.093 103.823 257.355 101.83C259.455 98.5012 260.86 94.983 261.916 91.385C265.364 79.6902 267.623 67.8281 269.922 55.9736C270.342 53.8003 270.743 51.627 271.153 49.4762C273.014 49.4762 274.652 49.5311 276.287 49.4612C278.399 49.3689 279.63 48.0614 278.694 46.6916C277.244 44.5632 276.932 42.2527 276.385 39.9646C275.953 38.1531 275.562 36.3317 275.078 34.5277C274.782 33.4248 274.331 32.3394 272.604 32.1348C270.756 31.9152 269.938 32.9357 269.21 33.9787C268.761 34.6225 268.386 35.3062 268.02 35.9823C266.538 38.762 265.104 41.5565 263.58 44.3212C263.294 44.8427 262.782 45.4665 262.174 45.6636C261.112 46.0054 260.342 46.3772 260.406 47.3428C260.469 48.3159 261.392 48.7326 262.413 48.9073C263.726 49.1269 265.078 49.1992 266.573 49.3465C266.548 49.6434 266.56 50.0002 266.49 50.3495C265.119 57.3385 263.876 64.3449 262.324 71.3114C260.797 78.1531 259.063 84.9674 257.203 91.7543C256.198 95.4247 254.579 98.9678 252.063 102.209C250.95 103.641 249.677 104.969 247.785 105.825C245.781 106.73 243.714 106.84 241.859 105.645C240.412 104.712 239.07 103.669 237.823 102.571C235.469 100.51 233.287 98.3241 230.889 96.2955C229.677 95.27 228.249 94.3468 226.735 93.6132C224.152 92.3631 221.643 92.5478 219.369 94.1297C218.033 95.0604 216.767 96.1258 215.822 97.3035C213.819 99.7962 212.034 102.396 210.186 104.964C209.496 105.919 208.86 106.9 208.195 107.871C208.011 107.861 207.823 107.851 207.642 107.843C207.209 107.07 206.637 106.324 206.363 105.518C205.377 102.611 204.439 99.6964 203.586 96.7671C203.256 95.6318 203.243 94.4466 203.004 93.2938C202.747 92.0387 201.983 91.4723 200.781 91.5397C199.591 91.6096 197.965 92.3656 198 93.6132C198.006 93.7379 199.025 93.8003 199.041 93.9201C199.493 96.4776 199.808 99.0551 200.425 101.585C201.109 104.36 202.028 107.11 203.885 109.587C206.229 112.721 209.397 112.794 211.859 109.764C212.489 108.986 213.004 108.155 213.558 107.339C214.776 105.55 215.895 103.714 217.222 101.974C218.389 100.452 219.665 98.9603 221.102 97.5855C222.833 95.9437 223.815 95.8563 225.803 97.3035ZM271.182 39.0589C271.334 39.0714 271.49 39.0913 271.643 39.1038C272.18 41.3245 272.715 43.5427 273.265 45.8407H267.645C268.93 43.383 270.056 41.2222 271.182 39.0589Z" fill="#18FF7B"/>
</g>
</g>
<defs>
<clipPath id="clip0_63_98">
<rect width="327" height="138" fill="white"/>
</clipPath>
</defs>
</svg>
